<?xml version="1.0" encoding="UTF-8" standalone="no"?>
<svg
   xmlns:dc="http://purl.org/dc/elements/1.1/"
   xmlns:cc="http://creativecommons.org/ns#"
   xmlns:rdf="http://www.w3.org/1999/02/22-rdf-syntax-ns#"
   xmlns:svg="http://www.w3.org/2000/svg"
   xmlns="http://www.w3.org/2000/svg"
   xmlns:sodipodi="http://sodipodi.sourceforge.net/DTD/sodipodi-0.dtd"
   xmlns:inkscape="http://www.inkscape.org/namespaces/inkscape"
   aria-hidden="true"
   focusable="false"
   data-prefix="fas"
   data-icon="shopping-bag"
   class="svg-inline--fa fa-shopping-bag fa-w-14"
   role="img"
   viewBox="0 0 448 512"
   version="1.1"
   id="svg3763"
   sodipodi:docname="shopping-bag-solid.svg"
   inkscape:version="0.92.5 (2060ec1f9f, 2020-04-08)">
  <metadata
     id="metadata3769">
    <rdf:RDF>
      <cc:Work
         rdf:about="">
        <dc:format>image/svg+xml</dc:format>
        <dc:type
           rdf:resource="http://purl.org/dc/dcmitype/StillImage" />
      </cc:Work>
    </rdf:RDF>
  </metadata>
  <defs
     id="defs3767" />
  <sodipodi:namedview
     pagecolor="#ffffff"
     bordercolor="#666666"
     borderopacity="1"
     objecttolerance="10"
     gridtolerance="10"
     guidetolerance="10"
     inkscape:pageopacity="0"
     inkscape:pageshadow="2"
     inkscape:window-width="1848"
     inkscape:window-height="1016"
     id="namedview3765"
     showgrid="false"
     inkscape:zoom="1.6367188"
     inkscape:cx="140.29594"
     inkscape:cy="256"
     inkscape:window-x="72"
     inkscape:window-y="27"
     inkscape:window-maximized="1"
     inkscape:current-layer="svg3763" />
  <path
     d="M 352,160 V 128 C 352,57.42 294.579,0 224,0 153.42,0 96,57.42 96,128 v 32 H 0 v 272 c 0,44.183 35.817,80 80,80 h 288 c 44.183,0 80,-35.817 80,-80 V 160 Z M 160,128 c 0,-35.29 28.71,-64 64,-64 35.29,0 64,28.71 64,64 v 32 H 160 Z m 160,120 c -13.255,0 -24,-10.745 -24,-24 0,-13.255 10.745,-24 24,-24 13.255,0 24,10.745 24,24 0,13.255 -10.745,24 -24,24 z m -192,0 c -13.255,0 -24,-10.745 -24,-24 0,-13.255 10.745,-24 24,-24 13.255,0 24,10.745 24,24 0,13.255 -10.745,24 -24,24 z"
     id="path3761"
     inkscape:connector-curvature="0"
     style="fill:#32CAF0" />
  <path
     style="stroke-width:0.61097854"
     d="m 122.51647,246.95201 c -6.92512,-1.71596 -12.76343,-6.44421 -15.92786,-12.89946 -1.63445,-3.33417 -1.79052,-4.21174 -1.79052,-10.06782 0,-5.85609 0.15607,-6.73365 1.79052,-10.06783 3.43118,-6.9994 9.79774,-11.77255 17.62664,-13.21508 9.94881,-1.83314 20.57995,3.73602 25.22669,13.21508 1.63445,3.33418 1.79052,4.21174 1.79052,10.06783 0,5.85608 -0.15607,6.73365 -1.79052,10.06782 -3.266,6.66244 -9.50837,11.54287 -16.72165,13.07337 -3.97778,0.84399 -6.25227,0.80523 -10.20382,-0.17391 z"
     id="path3857"
     inkscape:connector-curvature="0" />
  <path
     style="stroke-width:0.61097854;fill:#FFC107;fill-opacity:1"
     d="m 314.07305,246.87226 c -7.01497,-1.9665 -12.38329,-6.49742 -15.53525,-13.11188 -1.70446,-3.57684 -1.89245,-4.54796 -1.89245,-9.77565 0,-5.24277 0.1844,-6.18851 1.9061,-9.77566 4.68918,-9.76988 15.10292,-15.35133 25.17839,-13.49486 16.02869,2.95341 24.40389,19.44532 17.25233,33.97221 -4.75248,9.65365 -16.67771,15.05402 -26.90912,12.18584 z"
     id="path3859"
     inkscape:connector-curvature="0" />
  <ellipse
     style="fill:#32CAF0;fill-opacity:1"
     id="path3861"
     cx="221.47972"
     cy="241.642"
     rx="140.21957"
     ry="64.458237" />
</svg>
